<?xml version="1.0" standalone="no"?>
<!DOCTYPE svg PUBLIC "-//W3C//DTD SVG 20010904//EN"
 "http://www.w3.org/TR/2001/REC-SVG-20010904/DTD/svg10.dtd">
<svg version="1.0" xmlns="http://www.w3.org/2000/svg"
 width="512.000000pt" height="512.000000pt" viewBox="0 0 512.000000 512.000000"
 preserveAspectRatio="xMidYMid meet">
<metadata>
Created by potrace 1.14, written by Peter Selinger 2001-2017
</metadata>
<g transform="translate(0.000000,512.000000) scale(0.100000,-0.100000)"
fill="#000000" stroke="none">
<path d="M0 2560 l0 -2560 1203 2 c661 1 1184 3 1162 5 -378 30 -740 134
-1043 300 -86 46 -292 182 -346 227 l-30 25 17 55 c21 66 96 154 156 180 26
12 44 29 52 49 46 110 195 275 313 346 97 58 255 101 372 101 l64 0 0 68 c0
75 9 92 52 92 24 0 28 4 28 30 0 32 52 100 76 100 16 0 18 -9 -31 185 -42 164
-74 248 -132 350 -119 206 -212 416 -252 570 -24 90 -30 288 -11 385 78 410
421 722 833 756 l77 7 0 -704 c0 -680 -1 -705 -19 -716 -10 -7 -34 -44 -51
-82 -18 -39 -36 -71 -39 -71 -3 0 -19 23 -34 50 -42 75 -57 81 -178 78 -99 -3
-104 -4 -118 -29 -13 -24 -11 -33 50 -160 l64 -134 3 -232 3 -233 35 0 34 0 0
236 0 237 -50 109 c-28 60 -50 111 -50 113 0 3 25 5 55 5 l55 0 47 -72 c27
-39 55 -76 64 -81 33 -21 63 0 96 65 l32 63 0 -412 1 -413 273 -1 c149 0 292
-4 317 -7 l45 -7 3 -66 c2 -52 -1 -69 -14 -80 -14 -11 -78 -15 -321 -17 l-303
-4 0 -74 0 -74 280 0 280 0 0 65 c0 77 3 78 100 37 195 -84 372 -283 419 -473
l16 -66 65 -12 c87 -16 212 -79 280 -140 l55 -49 -20 -21 c-33 -32 -252 -161
-370 -217 -277 -130 -552 -203 -895 -237 -19 -2 502 -5 1158 -5 l1192 -2 0
2560 0 2560 -2560 0 -2560 0 0 -2560z m2627 2126 l28 -24 5 -194 c6 -221 1
-243 -61 -266 -31 -12 -41 -11 -73 2 -57 24 -62 45 -56 265 l5 193 28 24 c18
15 41 24 62 24 21 0 44 -9 62 -24z m-1211 -479 c38 -21 262 -241 274 -269 36
-77 -43 -165 -124 -138 -35 12 -270 253 -286 294 -13 36 6 84 44 107 36 22 62
23 92 6z m-145 -1215 c39 -44 39 -90 0 -134 l-29 -33 -189 -3 -188 -3 -40 34
c-32 28 -39 40 -39 70 0 43 32 83 78 97 17 5 109 8 204 7 l174 -2 29 -33z"/>
<path d="M2560 674 l0 -267 58 7 c252 29 461 229 497 479 l7 47 -281 0 -281 0
0 -266z"/>
</g>
</svg>
