<?xml version="1.0" standalone="no"?>
<!DOCTYPE svg PUBLIC "-//W3C//DTD SVG 20010904//EN"
 "http://www.w3.org/TR/2001/REC-SVG-20010904/DTD/svg10.dtd">
<svg version="1.0" xmlns="http://www.w3.org/2000/svg"
 width="512.000000pt" height="512.000000pt" viewBox="0 0 512.000000 512.000000"
 preserveAspectRatio="xMidYMid meet">
<metadata>
Created by potrace 1.14, written by Peter Selinger 2001-2017
</metadata>
<g transform="translate(0.000000,512.000000) scale(0.100000,-0.100000)"
fill="#000000" stroke="none">
<path d="M2545 3926 l-490 -41 4 -86 3 -86 -166 -13 c-92 -7 -168 -16 -170
-19 -4 -8 10 -160 15 -165 2 -3 78 2 169 10 91 7 167 14 169 14 2 0 0 38 -4
84 l-7 83 44 6 c86 12 459 39 464 35 2 -3 8 -41 12 -84 l7 -79 75 4 c41 2 79
6 84 9 5 2 6 42 2 88 l-6 84 32 1 c18 0 95 6 171 13 76 6 140 10 143 7 2 -2 4
-26 4 -51 0 -26 3 -62 7 -80 l6 -33 83 6 82 5 7 -80 c4 -43 4 -82 0 -86 -3 -4
-40 -9 -81 -13 -41 -3 -76 -8 -77 -10 -2 -2 2 -69 9 -149 7 -80 13 -155 13
-167 1 -21 4 -21 79 -16 42 3 80 9 85 12 4 4 1 81 -7 172 -8 90 -14 164 -13
165 1 1 39 5 84 8 80 7 82 7 87 -16 13 -58 38 -479 30 -487 -7 -6 -427 -42
-639 -54 -32 -2 -31 -6 -40 96 l-7 67 -31 0 c-18 0 -56 -3 -84 -6 l-53 -7 0
-37 c0 -20 3 -59 7 -85 l6 -48 82 7 82 6 7 -38 c3 -20 6 -58 6 -83 l0 -47 -81
-7 -81 -7 3 -87 4 -86 -35 -2 c-19 -2 -58 -6 -87 -9 l-52 -5 5 -67 c8 -98 11
-111 31 -107 10 2 48 6 86 9 l67 5 0 -32 c0 -18 3 -56 7 -86 l6 -54 88 5 c49
3 87 3 85 -1 -2 -3 -1 -39 3 -78 4 -40 5 -73 3 -73 -15 0 -748 -61 -787 -65
l-51 -6 -12 162 c-7 89 -10 164 -7 167 3 3 31 7 63 9 109 8 103 2 96 97 l-7
83 82 7 82 7 -6 77 c-4 42 -8 82 -10 89 -3 9 -27 10 -88 6 l-84 -6 -6 78 c-3
42 -8 80 -12 83 -3 4 -155 -6 -337 -21 -182 -15 -333 -25 -336 -22 -4 4 -30
266 -32 316 0 14 16 19 83 25 79 9 82 10 81 34 -9 151 -10 145 22 148 16 1 53
5 82 8 l52 5 0 47 c0 26 -3 64 -6 85 -7 42 -15 43 -123 30 l-54 -6 7 -82 c7
-94 6 -95 -86 -95 -77 0 -78 -1 -71 -94 l6 -83 -78 -6 c-43 -4 -81 -9 -83 -12
-3 -3 3 -107 13 -233 9 -125 18 -238 19 -252 1 -24 -2 -25 -77 -31 -43 -4 -81
-10 -84 -13 -7 -6 31 -504 38 -510 6 -6 157 9 164 16 3 3 -3 118 -14 254 -11
137 -18 250 -17 252 10 10 836 76 844 67 3 -3 7 -41 10 -85 l5 -80 -35 0 c-20
0 -57 -3 -83 -7 l-47 -6 7 -80 c8 -93 5 -97 -70 -97 -97 -1 -98 -1 -90 -95 l7
-82 -68 -6 c-38 -3 -152 -13 -254 -22 -102 -9 -186 -18 -187 -18 -1 -1 1 -39
4 -85 l6 -82 31 0 c17 0 164 11 326 25 162 14 302 25 311 25 13 0 17 -16 23
-82 4 -45 9 -84 11 -86 4 -4 714 52 808 64 l48 6 -7 83 -7 83 44 6 c55 7 756
66 787 66 21 0 22 3 20 88 l-3 87 78 6 c43 4 80 8 82 10 2 2 -3 78 -11 168 -8
90 -12 166 -10 168 2 2 39 7 82 11 l79 7 -4 80 c-2 44 -5 84 -8 88 -3 4 -43 5
-89 1 l-84 -7 0 49 c0 27 -3 66 -6 86 l-7 38 -82 -6 -83 -7 -6 49 c-3 27 -13
137 -21 244 -9 107 -18 201 -20 208 -3 7 -13 11 -22 8 -10 -3 -47 -6 -83 -7
-50 -2 -65 1 -67 12 -1 8 -5 45 -8 83 l-7 69 -83 -6 -82 -6 -7 52 c-3 29 -6
67 -6 86 l0 34 -84 -7 c-94 -8 -96 -6 -96 64 0 70 -10 100 -34 99 -11 -1 -241
-20 -511 -43z"/>
<path d="M2475 3571 l-50 -6 3 -55 c16 -248 38 -455 50 -454 6 1 40 2 75 3 34
1 67 5 74 9 11 7 10 35 -25 427 l-7 80 -35 1 c-19 1 -57 -1 -85 -5z"/>
</g>
</svg>
